<mxfile>
    <diagram id="trkcsiYFmEI6NpKlcRJz" name="Page-1">
        <mxGraphModel dx="-310" dy="356" grid="0" gridSize="10" guides="1" tooltips="1" connect="1" arrows="1" fold="1" page="0" pageScale="1" pageWidth="1169" pageHeight="827" math="0" shadow="0">
            <root>
                <mxCell id="0"/>
                <mxCell id="1" parent="0"/>
                <mxCell id="0aXxM7tNw3-ZoR6wABGS-1" value="Eleve" style="swimlane;fontStyle=1;childLayout=stackLayout;horizontal=1;startSize=26;horizontalStack=0;resizeParent=1;resizeLast=0;collapsible=1;marginBottom=0;rounded=0;shadow=0;strokeWidth=1;" parent="1" vertex="1">
                    <mxGeometry x="1740" y="280" width="210" height="312" as="geometry">
                        <mxRectangle x="20" y="80" width="160" height="26" as="alternateBounds"/>
                    </mxGeometry>
                </mxCell>
                <mxCell id="0aXxM7tNw3-ZoR6wABGS-2" value="Id" style="shape=partialRectangle;top=0;left=0;right=0;bottom=1;align=left;verticalAlign=top;fillColor=none;spacingLeft=40;spacingRight=4;overflow=hidden;rotatable=0;points=[[0,0.5],[1,0.5]];portConstraint=eastwest;dropTarget=0;rounded=0;shadow=0;strokeWidth=1;fontStyle=4" parent="0aXxM7tNw3-ZoR6wABGS-1" vertex="1">
                    <mxGeometry y="26" width="210" height="26" as="geometry"/>
                </mxCell>
                <mxCell id="0aXxM7tNw3-ZoR6wABGS-3" value="PK" style="shape=partialRectangle;top=0;left=0;bottom=0;fillColor=none;align=left;verticalAlign=top;spacingLeft=4;spacingRight=4;overflow=hidden;rotatable=0;points=[];portConstraint=eastwest;part=1;" parent="0aXxM7tNw3-ZoR6wABGS-2" vertex="1" connectable="0">
                    <mxGeometry width="36" height="26" as="geometry"/>
                </mxCell>
                <mxCell id="0aXxM7tNw3-ZoR6wABGS-4" value="Nom" style="shape=partialRectangle;top=0;left=0;right=0;bottom=0;align=left;verticalAlign=top;fillColor=none;spacingLeft=40;spacingRight=4;overflow=hidden;rotatable=0;points=[[0,0.5],[1,0.5]];portConstraint=eastwest;dropTarget=0;rounded=0;shadow=0;strokeWidth=1;" parent="0aXxM7tNw3-ZoR6wABGS-1" vertex="1">
                    <mxGeometry y="52" width="210" height="26" as="geometry"/>
                </mxCell>
                <mxCell id="0aXxM7tNw3-ZoR6wABGS-5" value="" style="shape=partialRectangle;top=0;left=0;bottom=0;fillColor=none;align=left;verticalAlign=top;spacingLeft=4;spacingRight=4;overflow=hidden;rotatable=0;points=[];portConstraint=eastwest;part=1;" parent="0aXxM7tNw3-ZoR6wABGS-4" vertex="1" connectable="0">
                    <mxGeometry width="36" height="26" as="geometry"/>
                </mxCell>
                <mxCell id="0aXxM7tNw3-ZoR6wABGS-6" value="Prenom" style="shape=partialRectangle;top=0;left=0;right=0;bottom=0;align=left;verticalAlign=top;fillColor=none;spacingLeft=40;spacingRight=4;overflow=hidden;rotatable=0;points=[[0,0.5],[1,0.5]];portConstraint=eastwest;dropTarget=0;rounded=0;shadow=0;strokeWidth=1;" parent="0aXxM7tNw3-ZoR6wABGS-1" vertex="1">
                    <mxGeometry y="78" width="210" height="26" as="geometry"/>
                </mxCell>
                <mxCell id="0aXxM7tNw3-ZoR6wABGS-7" value="" style="shape=partialRectangle;top=0;left=0;bottom=0;fillColor=none;align=left;verticalAlign=top;spacingLeft=4;spacingRight=4;overflow=hidden;rotatable=0;points=[];portConstraint=eastwest;part=1;" parent="0aXxM7tNw3-ZoR6wABGS-6" vertex="1" connectable="0">
                    <mxGeometry width="36" height="26" as="geometry"/>
                </mxCell>
                <mxCell id="0aXxM7tNw3-ZoR6wABGS-8" value="Adressse" style="shape=partialRectangle;top=0;left=0;right=0;bottom=0;align=left;verticalAlign=top;fillColor=none;spacingLeft=40;spacingRight=4;overflow=hidden;rotatable=0;points=[[0,0.5],[1,0.5]];portConstraint=eastwest;dropTarget=0;rounded=0;shadow=0;strokeWidth=1;" parent="0aXxM7tNw3-ZoR6wABGS-1" vertex="1">
                    <mxGeometry y="104" width="210" height="26" as="geometry"/>
                </mxCell>
                <mxCell id="0aXxM7tNw3-ZoR6wABGS-9" value="" style="shape=partialRectangle;top=0;left=0;bottom=0;fillColor=none;align=left;verticalAlign=top;spacingLeft=4;spacingRight=4;overflow=hidden;rotatable=0;points=[];portConstraint=eastwest;part=1;" parent="0aXxM7tNw3-ZoR6wABGS-8" vertex="1" connectable="0">
                    <mxGeometry width="36" height="26" as="geometry"/>
                </mxCell>
                <mxCell id="0aXxM7tNw3-ZoR6wABGS-18" value="DateNaissance" style="shape=partialRectangle;top=0;left=0;right=0;bottom=0;align=left;verticalAlign=top;fillColor=none;spacingLeft=40;spacingRight=4;overflow=hidden;rotatable=0;points=[[0,0.5],[1,0.5]];portConstraint=eastwest;dropTarget=0;rounded=0;shadow=0;strokeWidth=1;" parent="0aXxM7tNw3-ZoR6wABGS-1" vertex="1">
                    <mxGeometry y="130" width="210" height="26" as="geometry"/>
                </mxCell>
                <mxCell id="0aXxM7tNw3-ZoR6wABGS-19" value="" style="shape=partialRectangle;top=0;left=0;bottom=0;fillColor=none;align=left;verticalAlign=top;spacingLeft=4;spacingRight=4;overflow=hidden;rotatable=0;points=[];portConstraint=eastwest;part=1;" parent="0aXxM7tNw3-ZoR6wABGS-18" vertex="1" connectable="0">
                    <mxGeometry width="36" height="26" as="geometry"/>
                </mxCell>
                <mxCell id="0aXxM7tNw3-ZoR6wABGS-22" value="RegistreNational" style="shape=partialRectangle;top=0;left=0;right=0;bottom=0;align=left;verticalAlign=top;fillColor=none;spacingLeft=40;spacingRight=4;overflow=hidden;rotatable=0;points=[[0,0.5],[1,0.5]];portConstraint=eastwest;dropTarget=0;rounded=0;shadow=0;strokeWidth=1;" parent="0aXxM7tNw3-ZoR6wABGS-1" vertex="1">
                    <mxGeometry y="156" width="210" height="26" as="geometry"/>
                </mxCell>
                <mxCell id="0aXxM7tNw3-ZoR6wABGS-23" value="" style="shape=partialRectangle;top=0;left=0;bottom=0;fillColor=none;align=left;verticalAlign=top;spacingLeft=4;spacingRight=4;overflow=hidden;rotatable=0;points=[];portConstraint=eastwest;part=1;" parent="0aXxM7tNw3-ZoR6wABGS-22" vertex="1" connectable="0">
                    <mxGeometry width="36" height="26" as="geometry"/>
                </mxCell>
                <mxCell id="0aXxM7tNw3-ZoR6wABGS-20" value="Sexe&#10;" style="shape=partialRectangle;top=0;left=0;right=0;bottom=0;align=left;verticalAlign=top;fillColor=none;spacingLeft=40;spacingRight=4;overflow=hidden;rotatable=0;points=[[0,0.5],[1,0.5]];portConstraint=eastwest;dropTarget=0;rounded=0;shadow=0;strokeWidth=1;" parent="0aXxM7tNw3-ZoR6wABGS-1" vertex="1">
                    <mxGeometry y="182" width="210" height="26" as="geometry"/>
                </mxCell>
                <mxCell id="0aXxM7tNw3-ZoR6wABGS-21" value="" style="shape=partialRectangle;top=0;left=0;bottom=0;fillColor=none;align=left;verticalAlign=top;spacingLeft=4;spacingRight=4;overflow=hidden;rotatable=0;points=[];portConstraint=eastwest;part=1;" parent="0aXxM7tNw3-ZoR6wABGS-20" vertex="1" connectable="0">
                    <mxGeometry width="36" height="26" as="geometry"/>
                </mxCell>
                <mxCell id="0aXxM7tNw3-ZoR6wABGS-26" value="DateDerniereModif" style="shape=partialRectangle;top=0;left=0;right=0;bottom=0;align=left;verticalAlign=top;fillColor=none;spacingLeft=40;spacingRight=4;overflow=hidden;rotatable=0;points=[[0,0.5],[1,0.5]];portConstraint=eastwest;dropTarget=0;rounded=0;shadow=0;strokeWidth=1;" parent="0aXxM7tNw3-ZoR6wABGS-1" vertex="1">
                    <mxGeometry y="208" width="210" height="26" as="geometry"/>
                </mxCell>
                <mxCell id="0aXxM7tNw3-ZoR6wABGS-27" value="" style="shape=partialRectangle;top=0;left=0;bottom=0;fillColor=none;align=left;verticalAlign=top;spacingLeft=4;spacingRight=4;overflow=hidden;rotatable=0;points=[];portConstraint=eastwest;part=1;" parent="0aXxM7tNw3-ZoR6wABGS-26" vertex="1" connectable="0">
                    <mxGeometry width="36" height="26" as="geometry"/>
                </mxCell>
                <mxCell id="0aXxM7tNw3-ZoR6wABGS-10" value="Actif" style="shape=partialRectangle;top=0;left=0;right=0;bottom=0;align=left;verticalAlign=top;fillColor=none;spacingLeft=40;spacingRight=4;overflow=hidden;rotatable=0;points=[[0,0.5],[1,0.5]];portConstraint=eastwest;dropTarget=0;rounded=0;shadow=0;strokeWidth=1;" parent="0aXxM7tNw3-ZoR6wABGS-1" vertex="1">
                    <mxGeometry y="234" width="210" height="26" as="geometry"/>
                </mxCell>
                <mxCell id="0aXxM7tNw3-ZoR6wABGS-11" value="" style="shape=partialRectangle;top=0;left=0;bottom=0;fillColor=none;align=left;verticalAlign=top;spacingLeft=4;spacingRight=4;overflow=hidden;rotatable=0;points=[];portConstraint=eastwest;part=1;" parent="0aXxM7tNw3-ZoR6wABGS-10" vertex="1" connectable="0">
                    <mxGeometry width="36" height="26" as="geometry"/>
                </mxCell>
                <mxCell id="0aXxM7tNw3-ZoR6wABGS-53" value="MedecinExterne_Id" style="shape=partialRectangle;top=0;left=0;right=0;bottom=0;align=left;verticalAlign=top;fillColor=none;spacingLeft=40;spacingRight=4;overflow=hidden;rotatable=0;points=[[0,0.5],[1,0.5]];portConstraint=eastwest;dropTarget=0;rounded=0;shadow=0;strokeWidth=1;" parent="0aXxM7tNw3-ZoR6wABGS-1" vertex="1">
                    <mxGeometry y="260" width="210" height="26" as="geometry"/>
                </mxCell>
                <mxCell id="0aXxM7tNw3-ZoR6wABGS-54" value="FK" style="shape=partialRectangle;top=0;left=0;bottom=0;fillColor=none;align=left;verticalAlign=top;spacingLeft=4;spacingRight=4;overflow=hidden;rotatable=0;points=[];portConstraint=eastwest;part=1;" parent="0aXxM7tNw3-ZoR6wABGS-53" vertex="1" connectable="0">
                    <mxGeometry width="36" height="26" as="geometry"/>
                </mxCell>
                <mxCell id="81" value="Classe_Id" style="shape=partialRectangle;top=0;left=0;right=0;bottom=0;align=left;verticalAlign=top;fillColor=none;spacingLeft=40;spacingRight=4;overflow=hidden;rotatable=0;points=[[0,0.5],[1,0.5]];portConstraint=eastwest;dropTarget=0;rounded=0;shadow=0;strokeWidth=1;" parent="0aXxM7tNw3-ZoR6wABGS-1" vertex="1">
                    <mxGeometry y="286" width="210" height="26" as="geometry"/>
                </mxCell>
                <mxCell id="82" value="FK" style="shape=partialRectangle;top=0;left=0;bottom=0;fillColor=none;align=left;verticalAlign=top;spacingLeft=4;spacingRight=4;overflow=hidden;rotatable=0;points=[];portConstraint=eastwest;part=1;" parent="81" vertex="1" connectable="0">
                    <mxGeometry width="36" height="26" as="geometry"/>
                </mxCell>
                <mxCell id="0aXxM7tNw3-ZoR6wABGS-12" value="Adressse" style="shape=partialRectangle;top=0;left=0;right=0;bottom=0;align=left;verticalAlign=top;fillColor=none;spacingLeft=40;spacingRight=4;overflow=hidden;rotatable=0;points=[[0,0.5],[1,0.5]];portConstraint=eastwest;dropTarget=0;rounded=0;shadow=0;strokeWidth=1;" parent="1" vertex="1">
                    <mxGeometry x="1740" y="384" width="210" height="26" as="geometry"/>
                </mxCell>
                <mxCell id="0aXxM7tNw3-ZoR6wABGS-13" value="" style="shape=partialRectangle;top=0;left=0;bottom=0;fillColor=none;align=left;verticalAlign=top;spacingLeft=4;spacingRight=4;overflow=hidden;rotatable=0;points=[];portConstraint=eastwest;part=1;" parent="0aXxM7tNw3-ZoR6wABGS-12" vertex="1" connectable="0">
                    <mxGeometry width="36" height="26" as="geometry"/>
                </mxCell>
                <mxCell id="0aXxM7tNw3-ZoR6wABGS-28" value="MedecinExterne" style="swimlane;fontStyle=1;childLayout=stackLayout;horizontal=1;startSize=26;horizontalStack=0;resizeParent=1;resizeLast=0;collapsible=1;marginBottom=0;rounded=0;shadow=0;strokeWidth=1;" parent="1" vertex="1">
                    <mxGeometry x="2150" y="280" width="210" height="286" as="geometry">
                        <mxRectangle x="20" y="80" width="160" height="26" as="alternateBounds"/>
                    </mxGeometry>
                </mxCell>
                <mxCell id="0aXxM7tNw3-ZoR6wABGS-29" value="Id" style="shape=partialRectangle;top=0;left=0;right=0;bottom=1;align=left;verticalAlign=top;fillColor=none;spacingLeft=40;spacingRight=4;overflow=hidden;rotatable=0;points=[[0,0.5],[1,0.5]];portConstraint=eastwest;dropTarget=0;rounded=0;shadow=0;strokeWidth=1;fontStyle=4" parent="0aXxM7tNw3-ZoR6wABGS-28" vertex="1">
                    <mxGeometry y="26" width="210" height="26" as="geometry"/>
                </mxCell>
                <mxCell id="0aXxM7tNw3-ZoR6wABGS-30" value="PK" style="shape=partialRectangle;top=0;left=0;bottom=0;fillColor=none;align=left;verticalAlign=top;spacingLeft=4;spacingRight=4;overflow=hidden;rotatable=0;points=[];portConstraint=eastwest;part=1;" parent="0aXxM7tNw3-ZoR6wABGS-29" vertex="1" connectable="0">
                    <mxGeometry width="36" height="26" as="geometry"/>
                </mxCell>
                <mxCell id="93" value="NumInami" style="shape=partialRectangle;top=0;left=0;right=0;bottom=0;align=left;verticalAlign=top;fillColor=none;spacingLeft=40;spacingRight=4;overflow=hidden;rotatable=0;points=[[0,0.5],[1,0.5]];portConstraint=eastwest;dropTarget=0;rounded=0;shadow=0;strokeWidth=1;" parent="0aXxM7tNw3-ZoR6wABGS-28" vertex="1">
                    <mxGeometry y="52" width="210" height="26" as="geometry"/>
                </mxCell>
                <mxCell id="94" value="" style="shape=partialRectangle;top=0;left=0;bottom=0;fillColor=none;align=left;verticalAlign=top;spacingLeft=4;spacingRight=4;overflow=hidden;rotatable=0;points=[];portConstraint=eastwest;part=1;" parent="93" vertex="1" connectable="0">
                    <mxGeometry width="36" height="26" as="geometry"/>
                </mxCell>
                <mxCell id="0aXxM7tNw3-ZoR6wABGS-31" value="Nom" style="shape=partialRectangle;top=0;left=0;right=0;bottom=0;align=left;verticalAlign=top;fillColor=none;spacingLeft=40;spacingRight=4;overflow=hidden;rotatable=0;points=[[0,0.5],[1,0.5]];portConstraint=eastwest;dropTarget=0;rounded=0;shadow=0;strokeWidth=1;" parent="0aXxM7tNw3-ZoR6wABGS-28" vertex="1">
                    <mxGeometry y="78" width="210" height="26" as="geometry"/>
                </mxCell>
                <mxCell id="0aXxM7tNw3-ZoR6wABGS-32" value="" style="shape=partialRectangle;top=0;left=0;bottom=0;fillColor=none;align=left;verticalAlign=top;spacingLeft=4;spacingRight=4;overflow=hidden;rotatable=0;points=[];portConstraint=eastwest;part=1;" parent="0aXxM7tNw3-ZoR6wABGS-31" vertex="1" connectable="0">
                    <mxGeometry width="36" height="26" as="geometry"/>
                </mxCell>
                <mxCell id="0aXxM7tNw3-ZoR6wABGS-33" value="Prenom" style="shape=partialRectangle;top=0;left=0;right=0;bottom=0;align=left;verticalAlign=top;fillColor=none;spacingLeft=40;spacingRight=4;overflow=hidden;rotatable=0;points=[[0,0.5],[1,0.5]];portConstraint=eastwest;dropTarget=0;rounded=0;shadow=0;strokeWidth=1;" parent="0aXxM7tNw3-ZoR6wABGS-28" vertex="1">
                    <mxGeometry y="104" width="210" height="26" as="geometry"/>
                </mxCell>
                <mxCell id="0aXxM7tNw3-ZoR6wABGS-34" value="" style="shape=partialRectangle;top=0;left=0;bottom=0;fillColor=none;align=left;verticalAlign=top;spacingLeft=4;spacingRight=4;overflow=hidden;rotatable=0;points=[];portConstraint=eastwest;part=1;" parent="0aXxM7tNw3-ZoR6wABGS-33" vertex="1" connectable="0">
                    <mxGeometry width="36" height="26" as="geometry"/>
                </mxCell>
                <mxCell id="0aXxM7tNw3-ZoR6wABGS-35" value="Adressse" style="shape=partialRectangle;top=0;left=0;right=0;bottom=0;align=left;verticalAlign=top;fillColor=none;spacingLeft=40;spacingRight=4;overflow=hidden;rotatable=0;points=[[0,0.5],[1,0.5]];portConstraint=eastwest;dropTarget=0;rounded=0;shadow=0;strokeWidth=1;" parent="0aXxM7tNw3-ZoR6wABGS-28" vertex="1">
                    <mxGeometry y="130" width="210" height="26" as="geometry"/>
                </mxCell>
                <mxCell id="0aXxM7tNw3-ZoR6wABGS-36" value="" style="shape=partialRectangle;top=0;left=0;bottom=0;fillColor=none;align=left;verticalAlign=top;spacingLeft=4;spacingRight=4;overflow=hidden;rotatable=0;points=[];portConstraint=eastwest;part=1;" parent="0aXxM7tNw3-ZoR6wABGS-35" vertex="1" connectable="0">
                    <mxGeometry width="36" height="26" as="geometry"/>
                </mxCell>
                <mxCell id="91" value="Mail" style="shape=partialRectangle;top=0;left=0;right=0;bottom=0;align=left;verticalAlign=top;fillColor=none;spacingLeft=40;spacingRight=4;overflow=hidden;rotatable=0;points=[[0,0.5],[1,0.5]];portConstraint=eastwest;dropTarget=0;rounded=0;shadow=0;strokeWidth=1;" parent="0aXxM7tNw3-ZoR6wABGS-28" vertex="1">
                    <mxGeometry y="156" width="210" height="26" as="geometry"/>
                </mxCell>
                <mxCell id="92" value="" style="shape=partialRectangle;top=0;left=0;bottom=0;fillColor=none;align=left;verticalAlign=top;spacingLeft=4;spacingRight=4;overflow=hidden;rotatable=0;points=[];portConstraint=eastwest;part=1;" parent="91" vertex="1" connectable="0">
                    <mxGeometry width="36" height="26" as="geometry"/>
                </mxCell>
                <mxCell id="0aXxM7tNw3-ZoR6wABGS-39" value="DateNaissance" style="shape=partialRectangle;top=0;left=0;right=0;bottom=0;align=left;verticalAlign=top;fillColor=none;spacingLeft=40;spacingRight=4;overflow=hidden;rotatable=0;points=[[0,0.5],[1,0.5]];portConstraint=eastwest;dropTarget=0;rounded=0;shadow=0;strokeWidth=1;" parent="0aXxM7tNw3-ZoR6wABGS-28" vertex="1">
                    <mxGeometry y="182" width="210" height="26" as="geometry"/>
                </mxCell>
                <mxCell id="0aXxM7tNw3-ZoR6wABGS-40" value="" style="shape=partialRectangle;top=0;left=0;bottom=0;fillColor=none;align=left;verticalAlign=top;spacingLeft=4;spacingRight=4;overflow=hidden;rotatable=0;points=[];portConstraint=eastwest;part=1;" parent="0aXxM7tNw3-ZoR6wABGS-39" vertex="1" connectable="0">
                    <mxGeometry width="36" height="26" as="geometry"/>
                </mxCell>
                <mxCell id="0aXxM7tNw3-ZoR6wABGS-41" value="TelephonePerso" style="shape=partialRectangle;top=0;left=0;right=0;bottom=0;align=left;verticalAlign=top;fillColor=none;spacingLeft=40;spacingRight=4;overflow=hidden;rotatable=0;points=[[0,0.5],[1,0.5]];portConstraint=eastwest;dropTarget=0;rounded=0;shadow=0;strokeWidth=1;" parent="0aXxM7tNw3-ZoR6wABGS-28" vertex="1">
                    <mxGeometry y="208" width="210" height="26" as="geometry"/>
                </mxCell>
                <mxCell id="0aXxM7tNw3-ZoR6wABGS-42" value="" style="shape=partialRectangle;top=0;left=0;bottom=0;fillColor=none;align=left;verticalAlign=top;spacingLeft=4;spacingRight=4;overflow=hidden;rotatable=0;points=[];portConstraint=eastwest;part=1;" parent="0aXxM7tNw3-ZoR6wABGS-41" vertex="1" connectable="0">
                    <mxGeometry width="36" height="26" as="geometry"/>
                </mxCell>
                <mxCell id="0aXxM7tNw3-ZoR6wABGS-43" value="TelephoneCabinet" style="shape=partialRectangle;top=0;left=0;right=0;bottom=0;align=left;verticalAlign=top;fillColor=none;spacingLeft=40;spacingRight=4;overflow=hidden;rotatable=0;points=[[0,0.5],[1,0.5]];portConstraint=eastwest;dropTarget=0;rounded=0;shadow=0;strokeWidth=1;" parent="0aXxM7tNw3-ZoR6wABGS-28" vertex="1">
                    <mxGeometry y="234" width="210" height="26" as="geometry"/>
                </mxCell>
                <mxCell id="0aXxM7tNw3-ZoR6wABGS-44" value="" style="shape=partialRectangle;top=0;left=0;bottom=0;fillColor=none;align=left;verticalAlign=top;spacingLeft=4;spacingRight=4;overflow=hidden;rotatable=0;points=[];portConstraint=eastwest;part=1;" parent="0aXxM7tNw3-ZoR6wABGS-43" vertex="1" connectable="0">
                    <mxGeometry width="36" height="26" as="geometry"/>
                </mxCell>
                <mxCell id="0aXxM7tNw3-ZoR6wABGS-45" value="Actif" style="shape=partialRectangle;top=0;left=0;right=0;bottom=0;align=left;verticalAlign=top;fillColor=none;spacingLeft=40;spacingRight=4;overflow=hidden;rotatable=0;points=[[0,0.5],[1,0.5]];portConstraint=eastwest;dropTarget=0;rounded=0;shadow=0;strokeWidth=1;" parent="0aXxM7tNw3-ZoR6wABGS-28" vertex="1">
                    <mxGeometry y="260" width="210" height="26" as="geometry"/>
                </mxCell>
                <mxCell id="0aXxM7tNw3-ZoR6wABGS-46" value="" style="shape=partialRectangle;top=0;left=0;bottom=0;fillColor=none;align=left;verticalAlign=top;spacingLeft=4;spacingRight=4;overflow=hidden;rotatable=0;points=[];portConstraint=eastwest;part=1;" parent="0aXxM7tNw3-ZoR6wABGS-45" vertex="1" connectable="0">
                    <mxGeometry width="36" height="26" as="geometry"/>
                </mxCell>
                <mxCell id="0aXxM7tNw3-ZoR6wABGS-55" style="edgeStyle=orthogonalEdgeStyle;rounded=0;orthogonalLoop=1;jettySize=auto;html=1;entryX=1;entryY=0.5;entryDx=0;entryDy=0;" parent="1" source="0aXxM7tNw3-ZoR6wABGS-29" target="0aXxM7tNw3-ZoR6wABGS-53" edge="1">
                    <mxGeometry relative="1" as="geometry"/>
                </mxCell>
                <mxCell id="0aXxM7tNw3-ZoR6wABGS-56" value="Traitement" style="swimlane;fontStyle=1;childLayout=stackLayout;horizontal=1;startSize=26;horizontalStack=0;resizeParent=1;resizeLast=0;collapsible=1;marginBottom=0;rounded=0;shadow=0;strokeWidth=1;" parent="1" vertex="1">
                    <mxGeometry x="1500" y="443" width="210" height="286" as="geometry">
                        <mxRectangle x="20" y="80" width="160" height="26" as="alternateBounds"/>
                    </mxGeometry>
                </mxCell>
                <mxCell id="0aXxM7tNw3-ZoR6wABGS-57" value="Id" style="shape=partialRectangle;top=0;left=0;right=0;bottom=1;align=left;verticalAlign=top;fillColor=none;spacingLeft=40;spacingRight=4;overflow=hidden;rotatable=0;points=[[0,0.5],[1,0.5]];portConstraint=eastwest;dropTarget=0;rounded=0;shadow=0;strokeWidth=1;fontStyle=4" parent="0aXxM7tNw3-ZoR6wABGS-56" vertex="1">
                    <mxGeometry y="26" width="210" height="26" as="geometry"/>
                </mxCell>
                <mxCell id="0aXxM7tNw3-ZoR6wABGS-58" value="PK" style="shape=partialRectangle;top=0;left=0;bottom=0;fillColor=none;align=left;verticalAlign=top;spacingLeft=4;spacingRight=4;overflow=hidden;rotatable=0;points=[];portConstraint=eastwest;part=1;" parent="0aXxM7tNw3-ZoR6wABGS-57" vertex="1" connectable="0">
                    <mxGeometry width="36" height="26" as="geometry"/>
                </mxCell>
                <mxCell id="0aXxM7tNw3-ZoR6wABGS-59" value="NomMedicament" style="shape=partialRectangle;top=0;left=0;right=0;bottom=0;align=left;verticalAlign=top;fillColor=none;spacingLeft=40;spacingRight=4;overflow=hidden;rotatable=0;points=[[0,0.5],[1,0.5]];portConstraint=eastwest;dropTarget=0;rounded=0;shadow=0;strokeWidth=1;" parent="0aXxM7tNw3-ZoR6wABGS-56" vertex="1">
                    <mxGeometry y="52" width="210" height="26" as="geometry"/>
                </mxCell>
                <mxCell id="0aXxM7tNw3-ZoR6wABGS-60" value="" style="shape=partialRectangle;top=0;left=0;bottom=0;fillColor=none;align=left;verticalAlign=top;spacingLeft=4;spacingRight=4;overflow=hidden;rotatable=0;points=[];portConstraint=eastwest;part=1;" parent="0aXxM7tNw3-ZoR6wABGS-59" vertex="1" connectable="0">
                    <mxGeometry width="36" height="26" as="geometry"/>
                </mxCell>
                <mxCell id="0aXxM7tNw3-ZoR6wABGS-61" value="Posologie" style="shape=partialRectangle;top=0;left=0;right=0;bottom=0;align=left;verticalAlign=top;fillColor=none;spacingLeft=40;spacingRight=4;overflow=hidden;rotatable=0;points=[[0,0.5],[1,0.5]];portConstraint=eastwest;dropTarget=0;rounded=0;shadow=0;strokeWidth=1;" parent="0aXxM7tNw3-ZoR6wABGS-56" vertex="1">
                    <mxGeometry y="78" width="210" height="26" as="geometry"/>
                </mxCell>
                <mxCell id="0aXxM7tNw3-ZoR6wABGS-62" value="" style="shape=partialRectangle;top=0;left=0;bottom=0;fillColor=none;align=left;verticalAlign=top;spacingLeft=4;spacingRight=4;overflow=hidden;rotatable=0;points=[];portConstraint=eastwest;part=1;" parent="0aXxM7tNw3-ZoR6wABGS-61" vertex="1" connectable="0">
                    <mxGeometry width="36" height="26" as="geometry"/>
                </mxCell>
                <mxCell id="0aXxM7tNw3-ZoR6wABGS-63" value="DateDebut" style="shape=partialRectangle;top=0;left=0;right=0;bottom=0;align=left;verticalAlign=top;fillColor=none;spacingLeft=40;spacingRight=4;overflow=hidden;rotatable=0;points=[[0,0.5],[1,0.5]];portConstraint=eastwest;dropTarget=0;rounded=0;shadow=0;strokeWidth=1;" parent="0aXxM7tNw3-ZoR6wABGS-56" vertex="1">
                    <mxGeometry y="104" width="210" height="26" as="geometry"/>
                </mxCell>
                <mxCell id="0aXxM7tNw3-ZoR6wABGS-64" value="" style="shape=partialRectangle;top=0;left=0;bottom=0;fillColor=none;align=left;verticalAlign=top;spacingLeft=4;spacingRight=4;overflow=hidden;rotatable=0;points=[];portConstraint=eastwest;part=1;" parent="0aXxM7tNw3-ZoR6wABGS-63" vertex="1" connectable="0">
                    <mxGeometry width="36" height="26" as="geometry"/>
                </mxCell>
                <mxCell id="0aXxM7tNw3-ZoR6wABGS-65" value="DateFin" style="shape=partialRectangle;top=0;left=0;right=0;bottom=0;align=left;verticalAlign=top;fillColor=none;spacingLeft=40;spacingRight=4;overflow=hidden;rotatable=0;points=[[0,0.5],[1,0.5]];portConstraint=eastwest;dropTarget=0;rounded=0;shadow=0;strokeWidth=1;" parent="0aXxM7tNw3-ZoR6wABGS-56" vertex="1">
                    <mxGeometry y="130" width="210" height="26" as="geometry"/>
                </mxCell>
                <mxCell id="0aXxM7tNw3-ZoR6wABGS-66" value="" style="shape=partialRectangle;top=0;left=0;bottom=0;fillColor=none;align=left;verticalAlign=top;spacingLeft=4;spacingRight=4;overflow=hidden;rotatable=0;points=[];portConstraint=eastwest;part=1;" parent="0aXxM7tNw3-ZoR6wABGS-65" vertex="1" connectable="0">
                    <mxGeometry width="36" height="26" as="geometry"/>
                </mxCell>
                <mxCell id="87" value="Objectif" style="shape=partialRectangle;top=0;left=0;right=0;bottom=0;align=left;verticalAlign=top;fillColor=none;spacingLeft=40;spacingRight=4;overflow=hidden;rotatable=0;points=[[0,0.5],[1,0.5]];portConstraint=eastwest;dropTarget=0;rounded=0;shadow=0;strokeWidth=1;" parent="0aXxM7tNw3-ZoR6wABGS-56" vertex="1">
                    <mxGeometry y="156" width="210" height="26" as="geometry"/>
                </mxCell>
                <mxCell id="88" value="" style="shape=partialRectangle;top=0;left=0;bottom=0;fillColor=none;align=left;verticalAlign=top;spacingLeft=4;spacingRight=4;overflow=hidden;rotatable=0;points=[];portConstraint=eastwest;part=1;" parent="87" vertex="1" connectable="0">
                    <mxGeometry width="36" height="26" as="geometry"/>
                </mxCell>
                <mxCell id="0aXxM7tNw3-ZoR6wABGS-69" value="Actif" style="shape=partialRectangle;top=0;left=0;right=0;bottom=0;align=left;verticalAlign=top;fillColor=none;spacingLeft=40;spacingRight=4;overflow=hidden;rotatable=0;points=[[0,0.5],[1,0.5]];portConstraint=eastwest;dropTarget=0;rounded=0;shadow=0;strokeWidth=1;" parent="0aXxM7tNw3-ZoR6wABGS-56" vertex="1">
                    <mxGeometry y="182" width="210" height="26" as="geometry"/>
                </mxCell>
                <mxCell id="0aXxM7tNw3-ZoR6wABGS-70" value="" style="shape=partialRectangle;top=0;left=0;bottom=0;fillColor=none;align=left;verticalAlign=top;spacingLeft=4;spacingRight=4;overflow=hidden;rotatable=0;points=[];portConstraint=eastwest;part=1;" parent="0aXxM7tNw3-ZoR6wABGS-69" vertex="1" connectable="0">
                    <mxGeometry width="36" height="26" as="geometry"/>
                </mxCell>
                <mxCell id="0aXxM7tNw3-ZoR6wABGS-71" value="TargetPresciptionMedical" style="shape=partialRectangle;top=0;left=0;right=0;bottom=0;align=left;verticalAlign=top;fillColor=none;spacingLeft=40;spacingRight=4;overflow=hidden;rotatable=0;points=[[0,0.5],[1,0.5]];portConstraint=eastwest;dropTarget=0;rounded=0;shadow=0;strokeWidth=1;" parent="0aXxM7tNw3-ZoR6wABGS-56" vertex="1">
                    <mxGeometry y="208" width="210" height="26" as="geometry"/>
                </mxCell>
                <mxCell id="0aXxM7tNw3-ZoR6wABGS-72" value="" style="shape=partialRectangle;top=0;left=0;bottom=0;fillColor=none;align=left;verticalAlign=top;spacingLeft=4;spacingRight=4;overflow=hidden;rotatable=0;points=[];portConstraint=eastwest;part=1;" parent="0aXxM7tNw3-ZoR6wABGS-71" vertex="1" connectable="0">
                    <mxGeometry width="36" height="26" as="geometry"/>
                </mxCell>
                <mxCell id="0aXxM7tNw3-ZoR6wABGS-73" value="Eleve_Id" style="shape=partialRectangle;top=0;left=0;right=0;bottom=0;align=left;verticalAlign=top;fillColor=none;spacingLeft=40;spacingRight=4;overflow=hidden;rotatable=0;points=[[0,0.5],[1,0.5]];portConstraint=eastwest;dropTarget=0;rounded=0;shadow=0;strokeWidth=1;" parent="0aXxM7tNw3-ZoR6wABGS-56" vertex="1">
                    <mxGeometry y="234" width="210" height="26" as="geometry"/>
                </mxCell>
                <mxCell id="0aXxM7tNw3-ZoR6wABGS-74" value="FK" style="shape=partialRectangle;top=0;left=0;bottom=0;fillColor=none;align=left;verticalAlign=top;spacingLeft=4;spacingRight=4;overflow=hidden;rotatable=0;points=[];portConstraint=eastwest;part=1;" parent="0aXxM7tNw3-ZoR6wABGS-73" vertex="1" connectable="0">
                    <mxGeometry width="36" height="26" as="geometry"/>
                </mxCell>
                <mxCell id="h8LNyw_z4NjjadAwoo-t-5" value="Utilisateur_Id" style="shape=partialRectangle;top=0;left=0;right=0;bottom=0;align=left;verticalAlign=top;fillColor=none;spacingLeft=40;spacingRight=4;overflow=hidden;rotatable=0;points=[[0,0.5],[1,0.5]];portConstraint=eastwest;dropTarget=0;rounded=0;shadow=0;strokeWidth=1;" parent="0aXxM7tNw3-ZoR6wABGS-56" vertex="1">
                    <mxGeometry y="260" width="210" height="26" as="geometry"/>
                </mxCell>
                <mxCell id="h8LNyw_z4NjjadAwoo-t-6" value="FK" style="shape=partialRectangle;top=0;left=0;bottom=0;fillColor=none;align=left;verticalAlign=top;spacingLeft=4;spacingRight=4;overflow=hidden;rotatable=0;points=[];portConstraint=eastwest;part=1;" parent="h8LNyw_z4NjjadAwoo-t-5" vertex="1" connectable="0">
                    <mxGeometry width="36" height="26" as="geometry"/>
                </mxCell>
                <mxCell id="0aXxM7tNw3-ZoR6wABGS-76" value="Utilisateur" style="swimlane;fontStyle=1;childLayout=stackLayout;horizontal=1;startSize=26;horizontalStack=0;resizeParent=1;resizeLast=0;collapsible=1;marginBottom=0;rounded=0;shadow=0;strokeWidth=1;" parent="1" vertex="1">
                    <mxGeometry x="1230" y="610" width="210" height="416" as="geometry">
                        <mxRectangle x="20" y="80" width="160" height="26" as="alternateBounds"/>
                    </mxGeometry>
                </mxCell>
                <mxCell id="0aXxM7tNw3-ZoR6wABGS-77" value="Id" style="shape=partialRectangle;top=0;left=0;right=0;bottom=1;align=left;verticalAlign=top;fillColor=none;spacingLeft=40;spacingRight=4;overflow=hidden;rotatable=0;points=[[0,0.5],[1,0.5]];portConstraint=eastwest;dropTarget=0;rounded=0;shadow=0;strokeWidth=1;fontStyle=4" parent="0aXxM7tNw3-ZoR6wABGS-76" vertex="1">
                    <mxGeometry y="26" width="210" height="26" as="geometry"/>
                </mxCell>
                <mxCell id="0aXxM7tNw3-ZoR6wABGS-78" value="PK" style="shape=partialRectangle;top=0;left=0;bottom=0;fillColor=none;align=left;verticalAlign=top;spacingLeft=4;spacingRight=4;overflow=hidden;rotatable=0;points=[];portConstraint=eastwest;part=1;" parent="0aXxM7tNw3-ZoR6wABGS-77" vertex="1" connectable="0">
                    <mxGeometry width="36" height="26" as="geometry"/>
                </mxCell>
                <mxCell id="0aXxM7tNw3-ZoR6wABGS-79" value="Nom" style="shape=partialRectangle;top=0;left=0;right=0;bottom=0;align=left;verticalAlign=top;fillColor=none;spacingLeft=40;spacingRight=4;overflow=hidden;rotatable=0;points=[[0,0.5],[1,0.5]];portConstraint=eastwest;dropTarget=0;rounded=0;shadow=0;strokeWidth=1;" parent="0aXxM7tNw3-ZoR6wABGS-76" vertex="1">
                    <mxGeometry y="52" width="210" height="26" as="geometry"/>
                </mxCell>
                <mxCell id="0aXxM7tNw3-ZoR6wABGS-80" value="" style="shape=partialRectangle;top=0;left=0;bottom=0;fillColor=none;align=left;verticalAlign=top;spacingLeft=4;spacingRight=4;overflow=hidden;rotatable=0;points=[];portConstraint=eastwest;part=1;" parent="0aXxM7tNw3-ZoR6wABGS-79" vertex="1" connectable="0">
                    <mxGeometry width="36" height="26" as="geometry"/>
                </mxCell>
                <mxCell id="0aXxM7tNw3-ZoR6wABGS-81" value="Prenom" style="shape=partialRectangle;top=0;left=0;right=0;bottom=0;align=left;verticalAlign=top;fillColor=none;spacingLeft=40;spacingRight=4;overflow=hidden;rotatable=0;points=[[0,0.5],[1,0.5]];portConstraint=eastwest;dropTarget=0;rounded=0;shadow=0;strokeWidth=1;" parent="0aXxM7tNw3-ZoR6wABGS-76" vertex="1">
                    <mxGeometry y="78" width="210" height="26" as="geometry"/>
                </mxCell>
                <mxCell id="0aXxM7tNw3-ZoR6wABGS-82" value="" style="shape=partialRectangle;top=0;left=0;bottom=0;fillColor=none;align=left;verticalAlign=top;spacingLeft=4;spacingRight=4;overflow=hidden;rotatable=0;points=[];portConstraint=eastwest;part=1;" parent="0aXxM7tNw3-ZoR6wABGS-81" vertex="1" connectable="0">
                    <mxGeometry width="36" height="26" as="geometry"/>
                </mxCell>
                <mxCell id="0aXxM7tNw3-ZoR6wABGS-83" value="Adressse" style="shape=partialRectangle;top=0;left=0;right=0;bottom=0;align=left;verticalAlign=top;fillColor=none;spacingLeft=40;spacingRight=4;overflow=hidden;rotatable=0;points=[[0,0.5],[1,0.5]];portConstraint=eastwest;dropTarget=0;rounded=0;shadow=0;strokeWidth=1;" parent="0aXxM7tNw3-ZoR6wABGS-76" vertex="1">
                    <mxGeometry y="104" width="210" height="26" as="geometry"/>
                </mxCell>
                <mxCell id="0aXxM7tNw3-ZoR6wABGS-84" value="" style="shape=partialRectangle;top=0;left=0;bottom=0;fillColor=none;align=left;verticalAlign=top;spacingLeft=4;spacingRight=4;overflow=hidden;rotatable=0;points=[];portConstraint=eastwest;part=1;" parent="0aXxM7tNw3-ZoR6wABGS-83" vertex="1" connectable="0">
                    <mxGeometry width="36" height="26" as="geometry"/>
                </mxCell>
                <mxCell id="0aXxM7tNw3-ZoR6wABGS-85" value="DateNaissance" style="shape=partialRectangle;top=0;left=0;right=0;bottom=0;align=left;verticalAlign=top;fillColor=none;spacingLeft=40;spacingRight=4;overflow=hidden;rotatable=0;points=[[0,0.5],[1,0.5]];portConstraint=eastwest;dropTarget=0;rounded=0;shadow=0;strokeWidth=1;" parent="0aXxM7tNw3-ZoR6wABGS-76" vertex="1">
                    <mxGeometry y="130" width="210" height="26" as="geometry"/>
                </mxCell>
                <mxCell id="0aXxM7tNw3-ZoR6wABGS-86" value="" style="shape=partialRectangle;top=0;left=0;bottom=0;fillColor=none;align=left;verticalAlign=top;spacingLeft=4;spacingRight=4;overflow=hidden;rotatable=0;points=[];portConstraint=eastwest;part=1;" parent="0aXxM7tNw3-ZoR6wABGS-85" vertex="1" connectable="0">
                    <mxGeometry width="36" height="26" as="geometry"/>
                </mxCell>
                <mxCell id="0aXxM7tNw3-ZoR6wABGS-87" value="RegistreNational" style="shape=partialRectangle;top=0;left=0;right=0;bottom=0;align=left;verticalAlign=top;fillColor=none;spacingLeft=40;spacingRight=4;overflow=hidden;rotatable=0;points=[[0,0.5],[1,0.5]];portConstraint=eastwest;dropTarget=0;rounded=0;shadow=0;strokeWidth=1;" parent="0aXxM7tNw3-ZoR6wABGS-76" vertex="1">
                    <mxGeometry y="156" width="210" height="26" as="geometry"/>
                </mxCell>
                <mxCell id="0aXxM7tNw3-ZoR6wABGS-88" value="" style="shape=partialRectangle;top=0;left=0;bottom=0;fillColor=none;align=left;verticalAlign=top;spacingLeft=4;spacingRight=4;overflow=hidden;rotatable=0;points=[];portConstraint=eastwest;part=1;" parent="0aXxM7tNw3-ZoR6wABGS-87" vertex="1" connectable="0">
                    <mxGeometry width="36" height="26" as="geometry"/>
                </mxCell>
                <mxCell id="0aXxM7tNw3-ZoR6wABGS-89" value="Sexe&#10;" style="shape=partialRectangle;top=0;left=0;right=0;bottom=0;align=left;verticalAlign=top;fillColor=none;spacingLeft=40;spacingRight=4;overflow=hidden;rotatable=0;points=[[0,0.5],[1,0.5]];portConstraint=eastwest;dropTarget=0;rounded=0;shadow=0;strokeWidth=1;" parent="0aXxM7tNw3-ZoR6wABGS-76" vertex="1">
                    <mxGeometry y="182" width="210" height="26" as="geometry"/>
                </mxCell>
                <mxCell id="0aXxM7tNw3-ZoR6wABGS-90" value="" style="shape=partialRectangle;top=0;left=0;bottom=0;fillColor=none;align=left;verticalAlign=top;spacingLeft=4;spacingRight=4;overflow=hidden;rotatable=0;points=[];portConstraint=eastwest;part=1;" parent="0aXxM7tNw3-ZoR6wABGS-89" vertex="1" connectable="0">
                    <mxGeometry width="36" height="26" as="geometry"/>
                </mxCell>
                <mxCell id="0aXxM7tNw3-ZoR6wABGS-93" value="DateDerniereModif" style="shape=partialRectangle;top=0;left=0;right=0;bottom=0;align=left;verticalAlign=top;fillColor=none;spacingLeft=40;spacingRight=4;overflow=hidden;rotatable=0;points=[[0,0.5],[1,0.5]];portConstraint=eastwest;dropTarget=0;rounded=0;shadow=0;strokeWidth=1;" parent="0aXxM7tNw3-ZoR6wABGS-76" vertex="1">
                    <mxGeometry y="208" width="210" height="26" as="geometry"/>
                </mxCell>
                <mxCell id="0aXxM7tNw3-ZoR6wABGS-94" value="" style="shape=partialRectangle;top=0;left=0;bottom=0;fillColor=none;align=left;verticalAlign=top;spacingLeft=4;spacingRight=4;overflow=hidden;rotatable=0;points=[];portConstraint=eastwest;part=1;" parent="0aXxM7tNw3-ZoR6wABGS-93" vertex="1" connectable="0">
                    <mxGeometry width="36" height="26" as="geometry"/>
                </mxCell>
                <mxCell id="0aXxM7tNw3-ZoR6wABGS-146" value="DateDebutContrat" style="shape=partialRectangle;top=0;left=0;right=0;bottom=0;align=left;verticalAlign=top;fillColor=none;spacingLeft=40;spacingRight=4;overflow=hidden;rotatable=0;points=[[0,0.5],[1,0.5]];portConstraint=eastwest;dropTarget=0;rounded=0;shadow=0;strokeWidth=1;" parent="0aXxM7tNw3-ZoR6wABGS-76" vertex="1">
                    <mxGeometry y="234" width="210" height="26" as="geometry"/>
                </mxCell>
                <mxCell id="0aXxM7tNw3-ZoR6wABGS-147" value="" style="shape=partialRectangle;top=0;left=0;bottom=0;fillColor=none;align=left;verticalAlign=top;spacingLeft=4;spacingRight=4;overflow=hidden;rotatable=0;points=[];portConstraint=eastwest;part=1;" parent="0aXxM7tNw3-ZoR6wABGS-146" vertex="1" connectable="0">
                    <mxGeometry width="36" height="26" as="geometry"/>
                </mxCell>
                <mxCell id="0aXxM7tNw3-ZoR6wABGS-95" value="Telephone" style="shape=partialRectangle;top=0;left=0;right=0;bottom=0;align=left;verticalAlign=top;fillColor=none;spacingLeft=40;spacingRight=4;overflow=hidden;rotatable=0;points=[[0,0.5],[1,0.5]];portConstraint=eastwest;dropTarget=0;rounded=0;shadow=0;strokeWidth=1;" parent="0aXxM7tNw3-ZoR6wABGS-76" vertex="1">
                    <mxGeometry y="260" width="210" height="26" as="geometry"/>
                </mxCell>
                <mxCell id="0aXxM7tNw3-ZoR6wABGS-96" value="" style="shape=partialRectangle;top=0;left=0;bottom=0;fillColor=none;align=left;verticalAlign=top;spacingLeft=4;spacingRight=4;overflow=hidden;rotatable=0;points=[];portConstraint=eastwest;part=1;" parent="0aXxM7tNw3-ZoR6wABGS-95" vertex="1" connectable="0">
                    <mxGeometry width="36" height="26" as="geometry"/>
                </mxCell>
                <mxCell id="0aXxM7tNw3-ZoR6wABGS-148" value="Mail" style="shape=partialRectangle;top=0;left=0;right=0;bottom=0;align=left;verticalAlign=top;fillColor=none;spacingLeft=40;spacingRight=4;overflow=hidden;rotatable=0;points=[[0,0.5],[1,0.5]];portConstraint=eastwest;dropTarget=0;rounded=0;shadow=0;strokeWidth=1;" parent="0aXxM7tNw3-ZoR6wABGS-76" vertex="1">
                    <mxGeometry y="286" width="210" height="26" as="geometry"/>
                </mxCell>
                <mxCell id="0aXxM7tNw3-ZoR6wABGS-149" value="" style="shape=partialRectangle;top=0;left=0;bottom=0;fillColor=none;align=left;verticalAlign=top;spacingLeft=4;spacingRight=4;overflow=hidden;rotatable=0;points=[];portConstraint=eastwest;part=1;" parent="0aXxM7tNw3-ZoR6wABGS-148" vertex="1" connectable="0">
                    <mxGeometry width="36" height="26" as="geometry"/>
                </mxCell>
                <mxCell id="0aXxM7tNw3-ZoR6wABGS-152" value="MotDePasse" style="shape=partialRectangle;top=0;left=0;right=0;bottom=0;align=left;verticalAlign=top;fillColor=none;spacingLeft=40;spacingRight=4;overflow=hidden;rotatable=0;points=[[0,0.5],[1,0.5]];portConstraint=eastwest;dropTarget=0;rounded=0;shadow=0;strokeWidth=1;" parent="0aXxM7tNw3-ZoR6wABGS-76" vertex="1">
                    <mxGeometry y="312" width="210" height="26" as="geometry"/>
                </mxCell>
                <mxCell id="0aXxM7tNw3-ZoR6wABGS-153" value="" style="shape=partialRectangle;top=0;left=0;bottom=0;fillColor=none;align=left;verticalAlign=top;spacingLeft=4;spacingRight=4;overflow=hidden;rotatable=0;points=[];portConstraint=eastwest;part=1;" parent="0aXxM7tNw3-ZoR6wABGS-152" vertex="1" connectable="0">
                    <mxGeometry width="36" height="26" as="geometry"/>
                </mxCell>
                <mxCell id="0aXxM7tNw3-ZoR6wABGS-150" value="Salage" style="shape=partialRectangle;top=0;left=0;right=0;bottom=0;align=left;verticalAlign=top;fillColor=none;spacingLeft=40;spacingRight=4;overflow=hidden;rotatable=0;points=[[0,0.5],[1,0.5]];portConstraint=eastwest;dropTarget=0;rounded=0;shadow=0;strokeWidth=1;" parent="0aXxM7tNw3-ZoR6wABGS-76" vertex="1">
                    <mxGeometry y="338" width="210" height="26" as="geometry"/>
                </mxCell>
                <mxCell id="0aXxM7tNw3-ZoR6wABGS-151" value="" style="shape=partialRectangle;top=0;left=0;bottom=0;fillColor=none;align=left;verticalAlign=top;spacingLeft=4;spacingRight=4;overflow=hidden;rotatable=0;points=[];portConstraint=eastwest;part=1;" parent="0aXxM7tNw3-ZoR6wABGS-150" vertex="1" connectable="0">
                    <mxGeometry width="36" height="26" as="geometry"/>
                </mxCell>
                <mxCell id="0aXxM7tNw3-ZoR6wABGS-97" value="Actif" style="shape=partialRectangle;top=0;left=0;right=0;bottom=0;align=left;verticalAlign=top;fillColor=none;spacingLeft=40;spacingRight=4;overflow=hidden;rotatable=0;points=[[0,0.5],[1,0.5]];portConstraint=eastwest;dropTarget=0;rounded=0;shadow=0;strokeWidth=1;" parent="0aXxM7tNw3-ZoR6wABGS-76" vertex="1">
                    <mxGeometry y="364" width="210" height="26" as="geometry"/>
                </mxCell>
                <mxCell id="0aXxM7tNw3-ZoR6wABGS-98" value="" style="shape=partialRectangle;top=0;left=0;bottom=0;fillColor=none;align=left;verticalAlign=top;spacingLeft=4;spacingRight=4;overflow=hidden;rotatable=0;points=[];portConstraint=eastwest;part=1;" parent="0aXxM7tNw3-ZoR6wABGS-97" vertex="1" connectable="0">
                    <mxGeometry width="36" height="26" as="geometry"/>
                </mxCell>
                <mxCell id="100" value="TypeUtilisateur_Id" style="shape=partialRectangle;top=0;left=0;right=0;bottom=0;align=left;verticalAlign=top;fillColor=none;spacingLeft=40;spacingRight=4;overflow=hidden;rotatable=0;points=[[0,0.5],[1,0.5]];portConstraint=eastwest;dropTarget=0;rounded=0;shadow=0;strokeWidth=1;" parent="0aXxM7tNw3-ZoR6wABGS-76" vertex="1">
                    <mxGeometry y="390" width="210" height="26" as="geometry"/>
                </mxCell>
                <mxCell id="101" value="FK" style="shape=partialRectangle;top=0;left=0;bottom=0;fillColor=none;align=left;verticalAlign=top;spacingLeft=4;spacingRight=4;overflow=hidden;rotatable=0;points=[];portConstraint=eastwest;part=1;" parent="100" vertex="1" connectable="0">
                    <mxGeometry width="36" height="26" as="geometry"/>
                </mxCell>
                <mxCell id="0aXxM7tNw3-ZoR6wABGS-154" value="Inscription" style="swimlane;fontStyle=1;childLayout=stackLayout;horizontal=1;startSize=26;horizontalStack=0;resizeParent=1;resizeLast=0;collapsible=1;marginBottom=0;rounded=0;shadow=0;strokeWidth=1;" parent="1" vertex="1">
                    <mxGeometry x="1359" y="273" width="210" height="154" as="geometry">
                        <mxRectangle x="20" y="80" width="160" height="26" as="alternateBounds"/>
                    </mxGeometry>
                </mxCell>
                <mxCell id="0aXxM7tNw3-ZoR6wABGS-155" value="Id" style="shape=partialRectangle;top=0;left=0;right=0;bottom=1;align=left;verticalAlign=top;fillColor=none;spacingLeft=40;spacingRight=4;overflow=hidden;rotatable=0;points=[[0,0.5],[1,0.5]];portConstraint=eastwest;dropTarget=0;rounded=0;shadow=0;strokeWidth=1;fontStyle=4" parent="0aXxM7tNw3-ZoR6wABGS-154" vertex="1">
                    <mxGeometry y="26" width="210" height="26" as="geometry"/>
                </mxCell>
                <mxCell id="0aXxM7tNw3-ZoR6wABGS-156" value="PK" style="shape=partialRectangle;top=0;left=0;bottom=0;fillColor=none;align=left;verticalAlign=top;spacingLeft=4;spacingRight=4;overflow=hidden;rotatable=0;points=[];portConstraint=eastwest;part=1;" parent="0aXxM7tNw3-ZoR6wABGS-155" vertex="1" connectable="0">
                    <mxGeometry width="36" height="26" as="geometry"/>
                </mxCell>
                <mxCell id="0aXxM7tNw3-ZoR6wABGS-24" value="DateDebutInsciption" style="shape=partialRectangle;top=0;left=0;right=0;bottom=0;align=left;verticalAlign=top;fillColor=none;spacingLeft=40;spacingRight=4;overflow=hidden;rotatable=0;points=[[0,0.5],[1,0.5]];portConstraint=eastwest;dropTarget=0;rounded=0;shadow=0;strokeWidth=1;" parent="0aXxM7tNw3-ZoR6wABGS-154" vertex="1">
                    <mxGeometry y="52" width="210" height="26" as="geometry"/>
                </mxCell>
                <mxCell id="0aXxM7tNw3-ZoR6wABGS-25" value="" style="shape=partialRectangle;top=0;left=0;bottom=0;fillColor=none;align=left;verticalAlign=top;spacingLeft=4;spacingRight=4;overflow=hidden;rotatable=0;points=[];portConstraint=eastwest;part=1;" parent="0aXxM7tNw3-ZoR6wABGS-24" vertex="1" connectable="0">
                    <mxGeometry width="36" height="26" as="geometry"/>
                </mxCell>
                <mxCell id="0aXxM7tNw3-ZoR6wABGS-177" value="DateFinInsciption" style="shape=partialRectangle;top=0;left=0;right=0;bottom=0;align=left;verticalAlign=top;fillColor=none;spacingLeft=40;spacingRight=4;overflow=hidden;rotatable=0;points=[[0,0.5],[1,0.5]];portConstraint=eastwest;dropTarget=0;rounded=0;shadow=0;strokeWidth=1;" parent="0aXxM7tNw3-ZoR6wABGS-154" vertex="1">
                    <mxGeometry y="78" width="210" height="26" as="geometry"/>
                </mxCell>
                <mxCell id="0aXxM7tNw3-ZoR6wABGS-178" value="" style="shape=partialRectangle;top=0;left=0;bottom=0;fillColor=none;align=left;verticalAlign=top;spacingLeft=4;spacingRight=4;overflow=hidden;rotatable=0;points=[];portConstraint=eastwest;part=1;" parent="0aXxM7tNw3-ZoR6wABGS-177" vertex="1" connectable="0">
                    <mxGeometry width="36" height="26" as="geometry"/>
                </mxCell>
                <mxCell id="0aXxM7tNw3-ZoR6wABGS-173" value="Eleve_Id" style="shape=partialRectangle;top=0;left=0;right=0;bottom=0;align=left;verticalAlign=top;fillColor=none;spacingLeft=40;spacingRight=4;overflow=hidden;rotatable=0;points=[[0,0.5],[1,0.5]];portConstraint=eastwest;dropTarget=0;rounded=0;shadow=0;strokeWidth=1;" parent="0aXxM7tNw3-ZoR6wABGS-154" vertex="1">
                    <mxGeometry y="104" width="210" height="24" as="geometry"/>
                </mxCell>
                <mxCell id="0aXxM7tNw3-ZoR6wABGS-174" value="FK" style="shape=partialRectangle;top=0;left=0;bottom=0;fillColor=none;align=left;verticalAlign=top;spacingLeft=4;spacingRight=4;overflow=hidden;rotatable=0;points=[];portConstraint=eastwest;part=1;" parent="0aXxM7tNw3-ZoR6wABGS-173" vertex="1" connectable="0">
                    <mxGeometry width="36" height="24" as="geometry"/>
                </mxCell>
                <mxCell id="0aXxM7tNw3-ZoR6wABGS-175" value="Utilisateur_Id" style="shape=partialRectangle;top=0;left=0;right=0;bottom=0;align=left;verticalAlign=top;fillColor=none;spacingLeft=40;spacingRight=4;overflow=hidden;rotatable=0;points=[[0,0.5],[1,0.5]];portConstraint=eastwest;dropTarget=0;rounded=0;shadow=0;strokeWidth=1;" parent="0aXxM7tNw3-ZoR6wABGS-154" vertex="1">
                    <mxGeometry y="128" width="210" height="26" as="geometry"/>
                </mxCell>
                <mxCell id="0aXxM7tNw3-ZoR6wABGS-176" value="FK" style="shape=partialRectangle;top=0;left=0;bottom=0;fillColor=none;align=left;verticalAlign=top;spacingLeft=4;spacingRight=4;overflow=hidden;rotatable=0;points=[];portConstraint=eastwest;part=1;" parent="0aXxM7tNw3-ZoR6wABGS-175" vertex="1" connectable="0">
                    <mxGeometry width="36" height="26" as="geometry"/>
                </mxCell>
                <mxCell id="0aXxM7tNw3-ZoR6wABGS-179" style="edgeStyle=orthogonalEdgeStyle;rounded=0;orthogonalLoop=1;jettySize=auto;html=1;entryX=0.5;entryY=0;entryDx=0;entryDy=0;" parent="1" source="0aXxM7tNw3-ZoR6wABGS-175" target="0aXxM7tNw3-ZoR6wABGS-76" edge="1">
                    <mxGeometry relative="1" as="geometry"/>
                </mxCell>
                <mxCell id="0aXxM7tNw3-ZoR6wABGS-180" style="edgeStyle=orthogonalEdgeStyle;rounded=0;orthogonalLoop=1;jettySize=auto;html=1;entryX=-0.005;entryY=0.269;entryDx=0;entryDy=0;entryPerimeter=0;exitX=0;exitY=0.5;exitDx=0;exitDy=0;" parent="1" source="0aXxM7tNw3-ZoR6wABGS-173" edge="1">
                    <mxGeometry relative="1" as="geometry">
                        <mxPoint x="1360" y="354" as="sourcePoint"/>
                        <mxPoint x="1738.95" y="316.994" as="targetPoint"/>
                        <Array as="points">
                            <mxPoint x="1340" y="389"/>
                            <mxPoint x="1340" y="264"/>
                            <mxPoint x="1655" y="264"/>
                            <mxPoint x="1655" y="317"/>
                        </Array>
                    </mxGeometry>
                </mxCell>
                <mxCell id="0aXxM7tNw3-ZoR6wABGS-260" value="ParaMedical" style="swimlane;fontStyle=1;childLayout=stackLayout;horizontal=1;startSize=26;horizontalStack=0;resizeParent=1;resizeLast=0;collapsible=1;marginBottom=0;rounded=0;shadow=0;strokeWidth=1;" parent="1" vertex="1">
                    <mxGeometry x="2250" y="1110" width="210" height="130" as="geometry">
                        <mxRectangle x="20" y="80" width="160" height="26" as="alternateBounds"/>
                    </mxGeometry>
                </mxCell>
                <mxCell id="0aXxM7tNw3-ZoR6wABGS-261" value="Id" style="shape=partialRectangle;top=0;left=0;right=0;bottom=1;align=left;verticalAlign=top;fillColor=none;spacingLeft=40;spacingRight=4;overflow=hidden;rotatable=0;points=[[0,0.5],[1,0.5]];portConstraint=eastwest;dropTarget=0;rounded=0;shadow=0;strokeWidth=1;fontStyle=4" parent="0aXxM7tNw3-ZoR6wABGS-260" vertex="1">
                    <mxGeometry y="26" width="210" height="26" as="geometry"/>
                </mxCell>
                <mxCell id="0aXxM7tNw3-ZoR6wABGS-262" value="PK" style="shape=partialRectangle;top=0;left=0;bottom=0;fillColor=none;align=left;verticalAlign=top;spacingLeft=4;spacingRight=4;overflow=hidden;rotatable=0;points=[];portConstraint=eastwest;part=1;" parent="0aXxM7tNw3-ZoR6wABGS-261" vertex="1" connectable="0">
                    <mxGeometry width="36" height="26" as="geometry"/>
                </mxCell>
                <mxCell id="0aXxM7tNw3-ZoR6wABGS-291" value="NumInami" style="shape=partialRectangle;top=0;left=0;right=0;bottom=0;align=left;verticalAlign=top;fillColor=none;spacingLeft=40;spacingRight=4;overflow=hidden;rotatable=0;points=[[0,0.5],[1,0.5]];portConstraint=eastwest;dropTarget=0;rounded=0;shadow=0;strokeWidth=1;" parent="0aXxM7tNw3-ZoR6wABGS-260" vertex="1">
                    <mxGeometry y="52" width="210" height="26" as="geometry"/>
                </mxCell>
                <mxCell id="0aXxM7tNw3-ZoR6wABGS-292" value="" style="shape=partialRectangle;top=0;left=0;bottom=0;fillColor=none;align=left;verticalAlign=top;spacingLeft=4;spacingRight=4;overflow=hidden;rotatable=0;points=[];portConstraint=eastwest;part=1;" parent="0aXxM7tNw3-ZoR6wABGS-291" vertex="1" connectable="0">
                    <mxGeometry width="36" height="26" as="geometry"/>
                </mxCell>
                <mxCell id="0aXxM7tNw3-ZoR6wABGS-293" value="Specialisation_Id" style="shape=partialRectangle;top=0;left=0;right=0;bottom=0;align=left;verticalAlign=top;fillColor=none;spacingLeft=40;spacingRight=4;overflow=hidden;rotatable=0;points=[[0,0.5],[1,0.5]];portConstraint=eastwest;dropTarget=0;rounded=0;shadow=0;strokeWidth=1;" parent="0aXxM7tNw3-ZoR6wABGS-260" vertex="1">
                    <mxGeometry y="78" width="210" height="26" as="geometry"/>
                </mxCell>
                <mxCell id="0aXxM7tNw3-ZoR6wABGS-294" value="FK" style="shape=partialRectangle;top=0;left=0;bottom=0;fillColor=none;align=left;verticalAlign=top;spacingLeft=4;spacingRight=4;overflow=hidden;rotatable=0;points=[];portConstraint=eastwest;part=1;" parent="0aXxM7tNw3-ZoR6wABGS-293" vertex="1" connectable="0">
                    <mxGeometry width="36" height="26" as="geometry"/>
                </mxCell>
                <mxCell id="Ny6uk2lgKh3K1KJYJZhL-2" value="Utilisateur_Id" style="shape=partialRectangle;top=0;left=0;right=0;bottom=0;align=left;verticalAlign=top;fillColor=none;spacingLeft=40;spacingRight=4;overflow=hidden;rotatable=0;points=[[0,0.5],[1,0.5]];portConstraint=eastwest;dropTarget=0;rounded=0;shadow=0;strokeWidth=1;" parent="0aXxM7tNw3-ZoR6wABGS-260" vertex="1">
                    <mxGeometry y="104" width="210" height="26" as="geometry"/>
                </mxCell>
                <mxCell id="Ny6uk2lgKh3K1KJYJZhL-3" value="FK" style="shape=partialRectangle;top=0;left=0;bottom=0;fillColor=none;align=left;verticalAlign=top;spacingLeft=4;spacingRight=4;overflow=hidden;rotatable=0;points=[];portConstraint=eastwest;part=1;" parent="Ny6uk2lgKh3K1KJYJZhL-2" vertex="1" connectable="0">
                    <mxGeometry width="36" height="26" as="geometry"/>
                </mxCell>
                <mxCell id="0aXxM7tNw3-ZoR6wABGS-295" value="SpecialisationParaMedical" style="swimlane;fontStyle=1;childLayout=stackLayout;horizontal=1;startSize=26;horizontalStack=0;resizeParent=1;resizeLast=0;collapsible=1;marginBottom=0;rounded=0;shadow=0;strokeWidth=1;" parent="1" vertex="1">
                    <mxGeometry x="2390" y="934" width="210" height="78" as="geometry">
                        <mxRectangle x="20" y="80" width="160" height="26" as="alternateBounds"/>
                    </mxGeometry>
                </mxCell>
                <mxCell id="0aXxM7tNw3-ZoR6wABGS-296" value="Id" style="shape=partialRectangle;top=0;left=0;right=0;bottom=1;align=left;verticalAlign=top;fillColor=none;spacingLeft=40;spacingRight=4;overflow=hidden;rotatable=0;points=[[0,0.5],[1,0.5]];portConstraint=eastwest;dropTarget=0;rounded=0;shadow=0;strokeWidth=1;fontStyle=4" parent="0aXxM7tNw3-ZoR6wABGS-295" vertex="1">
                    <mxGeometry y="26" width="210" height="26" as="geometry"/>
                </mxCell>
                <mxCell id="0aXxM7tNw3-ZoR6wABGS-297" value="PK" style="shape=partialRectangle;top=0;left=0;bottom=0;fillColor=none;align=left;verticalAlign=top;spacingLeft=4;spacingRight=4;overflow=hidden;rotatable=0;points=[];portConstraint=eastwest;part=1;" parent="0aXxM7tNw3-ZoR6wABGS-296" vertex="1" connectable="0">
                    <mxGeometry width="36" height="26" as="geometry"/>
                </mxCell>
                <mxCell id="0aXxM7tNw3-ZoR6wABGS-302" value="Intitule" style="shape=partialRectangle;top=0;left=0;right=0;bottom=0;align=left;verticalAlign=top;fillColor=none;spacingLeft=40;spacingRight=4;overflow=hidden;rotatable=0;points=[[0,0.5],[1,0.5]];portConstraint=eastwest;dropTarget=0;rounded=0;shadow=0;strokeWidth=1;" parent="0aXxM7tNw3-ZoR6wABGS-295" vertex="1">
                    <mxGeometry y="52" width="210" height="26" as="geometry"/>
                </mxCell>
                <mxCell id="0aXxM7tNw3-ZoR6wABGS-303" value="" style="shape=partialRectangle;top=0;left=0;bottom=0;fillColor=none;align=left;verticalAlign=top;spacingLeft=4;spacingRight=4;overflow=hidden;rotatable=0;points=[];portConstraint=eastwest;part=1;" parent="0aXxM7tNw3-ZoR6wABGS-302" vertex="1" connectable="0">
                    <mxGeometry width="36" height="26" as="geometry"/>
                </mxCell>
                <mxCell id="h8LNyw_z4NjjadAwoo-t-7" style="edgeStyle=orthogonalEdgeStyle;rounded=0;orthogonalLoop=1;jettySize=auto;html=1;entryX=0;entryY=0.5;entryDx=0;entryDy=0;" parent="1" target="h8LNyw_z4NjjadAwoo-t-5" edge="1">
                    <mxGeometry relative="1" as="geometry">
                        <mxPoint x="1440" y="641" as="sourcePoint"/>
                        <mxPoint x="1499" y="732" as="targetPoint"/>
                        <Array as="points">
                            <mxPoint x="1483" y="641"/>
                            <mxPoint x="1483" y="716"/>
                        </Array>
                    </mxGeometry>
                </mxCell>
                <mxCell id="h8LNyw_z4NjjadAwoo-t-11" style="edgeStyle=orthogonalEdgeStyle;rounded=0;orthogonalLoop=1;jettySize=auto;html=1;entryX=1;entryY=0.5;entryDx=0;entryDy=0;exitX=0;exitY=0.5;exitDx=0;exitDy=0;" parent="1" source="0aXxM7tNw3-ZoR6wABGS-77" target="Ny6uk2lgKh3K1KJYJZhL-2" edge="1">
                    <mxGeometry relative="1" as="geometry">
                        <Array as="points">
                            <mxPoint x="1210" y="649"/>
                            <mxPoint x="1210" y="1260"/>
                            <mxPoint x="2480" y="1260"/>
                            <mxPoint x="2480" y="1227"/>
                        </Array>
                    </mxGeometry>
                </mxCell>
                <mxCell id="h8LNyw_z4NjjadAwoo-t-13" style="edgeStyle=orthogonalEdgeStyle;rounded=0;orthogonalLoop=1;jettySize=auto;html=1;entryX=1;entryY=0.5;entryDx=0;entryDy=0;" parent="1" source="0aXxM7tNw3-ZoR6wABGS-296" target="0aXxM7tNw3-ZoR6wABGS-293" edge="1">
                    <mxGeometry relative="1" as="geometry"/>
                </mxCell>
                <mxCell id="Ny6uk2lgKh3K1KJYJZhL-1" value="&lt;h1&gt;&lt;div&gt;&lt;span style=&quot;font-size: 12px ; font-weight: normal&quot;&gt;Triggers:&lt;/span&gt;&lt;/div&gt;&lt;div&gt;&lt;span style=&quot;font-size: 12px ; font-weight: normal&quot;&gt;1. Seules l'assistant social&amp;nbsp;et la direction peuvent inscrire un enfant.&lt;/span&gt;&lt;/div&gt;&lt;div&gt;&lt;span style=&quot;font-size: 12px ; font-weight: normal&quot;&gt;2. Seules la direction, l'assistante social et et l'enseignant titulaire peuvent établir un traitement.&lt;/span&gt;&lt;/div&gt;&lt;div&gt;&lt;span style=&quot;font-weight: normal&quot;&gt;&lt;span style=&quot;font-size: 12px&quot;&gt;3.&lt;/span&gt;&lt;span style=&quot;font-size: 12px ; text-align: center&quot;&gt;Les enseignants qui participent à la réunion devront etre liés à la classe qui est en relation avec la réunion d'équipe.&lt;/span&gt;&lt;/span&gt;&lt;/div&gt;&lt;div&gt;&lt;span style=&quot;font-size: 12px ; text-align: center ; font-weight: normal&quot;&gt;4.Seul le titulaire peut créer une réunion.&lt;/span&gt;&lt;/div&gt;&lt;div&gt;&lt;br&gt;&lt;/div&gt;&lt;/h1&gt;" style="text;html=1;strokeColor=none;fillColor=none;spacing=5;spacingTop=-20;whiteSpace=wrap;overflow=hidden;rounded=0;" parent="1" vertex="1">
                    <mxGeometry x="2790" y="286" width="280" height="626" as="geometry"/>
                </mxCell>
                <mxCell id="4" value="Classe" style="swimlane;fontStyle=1;childLayout=stackLayout;horizontal=1;startSize=26;horizontalStack=0;resizeParent=1;resizeLast=0;collapsible=1;marginBottom=0;rounded=0;shadow=0;strokeWidth=1;" parent="1" vertex="1">
                    <mxGeometry x="1962" y="809" width="210" height="130" as="geometry">
                        <mxRectangle x="20" y="80" width="160" height="26" as="alternateBounds"/>
                    </mxGeometry>
                </mxCell>
                <mxCell id="5" value="Id" style="shape=partialRectangle;top=0;left=0;right=0;bottom=1;align=left;verticalAlign=top;fillColor=none;spacingLeft=40;spacingRight=4;overflow=hidden;rotatable=0;points=[[0,0.5],[1,0.5]];portConstraint=eastwest;dropTarget=0;rounded=0;shadow=0;strokeWidth=1;fontStyle=4" parent="4" vertex="1">
                    <mxGeometry y="26" width="210" height="26" as="geometry"/>
                </mxCell>
                <mxCell id="6" value="PK" style="shape=partialRectangle;top=0;left=0;bottom=0;fillColor=none;align=left;verticalAlign=top;spacingLeft=4;spacingRight=4;overflow=hidden;rotatable=0;points=[];portConstraint=eastwest;part=1;" parent="5" vertex="1" connectable="0">
                    <mxGeometry width="36" height="26" as="geometry"/>
                </mxCell>
                <mxCell id="7" value="IntituleClasse" style="shape=partialRectangle;top=0;left=0;right=0;bottom=0;align=left;verticalAlign=top;fillColor=none;spacingLeft=40;spacingRight=4;overflow=hidden;rotatable=0;points=[[0,0.5],[1,0.5]];portConstraint=eastwest;dropTarget=0;rounded=0;shadow=0;strokeWidth=1;" parent="4" vertex="1">
                    <mxGeometry y="52" width="210" height="26" as="geometry"/>
                </mxCell>
                <mxCell id="8" value="" style="shape=partialRectangle;top=0;left=0;bottom=0;fillColor=none;align=left;verticalAlign=top;spacingLeft=4;spacingRight=4;overflow=hidden;rotatable=0;points=[];portConstraint=eastwest;part=1;" parent="7" vertex="1" connectable="0">
                    <mxGeometry width="36" height="26" as="geometry"/>
                </mxCell>
                <mxCell id="9" value="NbEleveMax" style="shape=partialRectangle;top=0;left=0;right=0;bottom=0;align=left;verticalAlign=top;fillColor=none;spacingLeft=40;spacingRight=4;overflow=hidden;rotatable=0;points=[[0,0.5],[1,0.5]];portConstraint=eastwest;dropTarget=0;rounded=0;shadow=0;strokeWidth=1;" parent="4" vertex="1">
                    <mxGeometry y="78" width="210" height="26" as="geometry"/>
                </mxCell>
                <mxCell id="10" value="" style="shape=partialRectangle;top=0;left=0;bottom=0;fillColor=none;align=left;verticalAlign=top;spacingLeft=4;spacingRight=4;overflow=hidden;rotatable=0;points=[];portConstraint=eastwest;part=1;" parent="9" vertex="1" connectable="0">
                    <mxGeometry width="36" height="26" as="geometry"/>
                </mxCell>
                <mxCell id="84" value="Utilisateur_Id" style="shape=partialRectangle;top=0;left=0;right=0;bottom=0;align=left;verticalAlign=top;fillColor=none;spacingLeft=40;spacingRight=4;overflow=hidden;rotatable=0;points=[[0,0.5],[1,0.5]];portConstraint=eastwest;dropTarget=0;rounded=0;shadow=0;strokeWidth=1;" parent="4" vertex="1">
                    <mxGeometry y="104" width="210" height="26" as="geometry"/>
                </mxCell>
                <mxCell id="85" value="FK" style="shape=partialRectangle;top=0;left=0;bottom=0;fillColor=none;align=left;verticalAlign=top;spacingLeft=4;spacingRight=4;overflow=hidden;rotatable=0;points=[];portConstraint=eastwest;part=1;" parent="84" vertex="1" connectable="0">
                    <mxGeometry width="36" height="26" as="geometry"/>
                </mxCell>
                <mxCell id="34" value="AllocationParaMedicals" style="swimlane;fontStyle=1;childLayout=stackLayout;horizontal=1;startSize=26;horizontalStack=0;resizeParent=1;resizeLast=0;collapsible=1;marginBottom=0;rounded=0;shadow=0;strokeWidth=1;" parent="1" vertex="1">
                    <mxGeometry x="1976" y="978" width="210" height="180" as="geometry">
                        <mxRectangle x="20" y="80" width="160" height="26" as="alternateBounds"/>
                    </mxGeometry>
                </mxCell>
                <mxCell id="35" value="Id" style="shape=partialRectangle;top=0;left=0;right=0;bottom=1;align=left;verticalAlign=top;fillColor=none;spacingLeft=40;spacingRight=4;overflow=hidden;rotatable=0;points=[[0,0.5],[1,0.5]];portConstraint=eastwest;dropTarget=0;rounded=0;shadow=0;strokeWidth=1;fontStyle=4" parent="34" vertex="1">
                    <mxGeometry y="26" width="210" height="26" as="geometry"/>
                </mxCell>
                <mxCell id="36" value="PK" style="shape=partialRectangle;top=0;left=0;bottom=0;fillColor=none;align=left;verticalAlign=top;spacingLeft=4;spacingRight=4;overflow=hidden;rotatable=0;points=[];portConstraint=eastwest;part=1;" parent="35" vertex="1" connectable="0">
                    <mxGeometry width="36" height="26" as="geometry"/>
                </mxCell>
                <mxCell id="61" value="DateDebut" style="shape=partialRectangle;top=0;left=0;right=0;bottom=0;align=left;verticalAlign=top;fillColor=none;spacingLeft=40;spacingRight=4;overflow=hidden;rotatable=0;points=[[0,0.5],[1,0.5]];portConstraint=eastwest;dropTarget=0;rounded=0;shadow=0;strokeWidth=1;" parent="34" vertex="1">
                    <mxGeometry y="52" width="210" height="26" as="geometry"/>
                </mxCell>
                <mxCell id="62" value="" style="shape=partialRectangle;top=0;left=0;bottom=0;fillColor=none;align=left;verticalAlign=top;spacingLeft=4;spacingRight=4;overflow=hidden;rotatable=0;points=[];portConstraint=eastwest;part=1;" parent="61" vertex="1" connectable="0">
                    <mxGeometry width="36" height="26" as="geometry"/>
                </mxCell>
                <mxCell id="63" value="DateFin" style="shape=partialRectangle;top=0;left=0;right=0;bottom=0;align=left;verticalAlign=top;fillColor=none;spacingLeft=40;spacingRight=4;overflow=hidden;rotatable=0;points=[[0,0.5],[1,0.5]];portConstraint=eastwest;dropTarget=0;rounded=0;shadow=0;strokeWidth=1;" parent="34" vertex="1">
                    <mxGeometry y="78" width="210" height="26" as="geometry"/>
                </mxCell>
                <mxCell id="64" value="" style="shape=partialRectangle;top=0;left=0;bottom=0;fillColor=none;align=left;verticalAlign=top;spacingLeft=4;spacingRight=4;overflow=hidden;rotatable=0;points=[];portConstraint=eastwest;part=1;" parent="63" vertex="1" connectable="0">
                    <mxGeometry width="36" height="26" as="geometry"/>
                </mxCell>
                <mxCell id="103" value="Actif" style="shape=partialRectangle;top=0;left=0;right=0;bottom=0;align=left;verticalAlign=top;fillColor=none;spacingLeft=40;spacingRight=4;overflow=hidden;rotatable=0;points=[[0,0.5],[1,0.5]];portConstraint=eastwest;dropTarget=0;rounded=0;shadow=0;strokeWidth=1;" vertex="1" parent="34">
                    <mxGeometry y="104" width="210" height="26" as="geometry"/>
                </mxCell>
                <mxCell id="104" value="" style="shape=partialRectangle;top=0;left=0;bottom=0;fillColor=none;align=left;verticalAlign=top;spacingLeft=4;spacingRight=4;overflow=hidden;rotatable=0;points=[];portConstraint=eastwest;part=1;" vertex="1" connectable="0" parent="103">
                    <mxGeometry width="36" height="26" as="geometry"/>
                </mxCell>
                <mxCell id="37" value="Classe_Id" style="shape=partialRectangle;top=0;left=0;right=0;bottom=0;align=left;verticalAlign=top;fillColor=none;spacingLeft=40;spacingRight=4;overflow=hidden;rotatable=0;points=[[0,0.5],[1,0.5]];portConstraint=eastwest;dropTarget=0;rounded=0;shadow=0;strokeWidth=1;" parent="34" vertex="1">
                    <mxGeometry y="130" width="210" height="24" as="geometry"/>
                </mxCell>
                <mxCell id="38" value="FK" style="shape=partialRectangle;top=0;left=0;bottom=0;fillColor=none;align=left;verticalAlign=top;spacingLeft=4;spacingRight=4;overflow=hidden;rotatable=0;points=[];portConstraint=eastwest;part=1;" parent="37" vertex="1" connectable="0">
                    <mxGeometry width="36" height="24" as="geometry"/>
                </mxCell>
                <mxCell id="39" value="ParaMedical_Id" style="shape=partialRectangle;top=0;left=0;right=0;bottom=0;align=left;verticalAlign=top;fillColor=none;spacingLeft=40;spacingRight=4;overflow=hidden;rotatable=0;points=[[0,0.5],[1,0.5]];portConstraint=eastwest;dropTarget=0;rounded=0;shadow=0;strokeWidth=1;" parent="34" vertex="1">
                    <mxGeometry y="154" width="210" height="26" as="geometry"/>
                </mxCell>
                <mxCell id="40" value="FK" style="shape=partialRectangle;top=0;left=0;bottom=0;fillColor=none;align=left;verticalAlign=top;spacingLeft=4;spacingRight=4;overflow=hidden;rotatable=0;points=[];portConstraint=eastwest;part=1;" parent="39" vertex="1" connectable="0">
                    <mxGeometry width="36" height="26" as="geometry"/>
                </mxCell>
                <mxCell id="46" style="edgeStyle=orthogonalEdgeStyle;rounded=0;orthogonalLoop=1;jettySize=auto;html=1;entryX=1;entryY=0.5;entryDx=0;entryDy=0;" parent="1" source="0aXxM7tNw3-ZoR6wABGS-261" target="39" edge="1">
                    <mxGeometry relative="1" as="geometry"/>
                </mxCell>
                <mxCell id="47" style="edgeStyle=orthogonalEdgeStyle;rounded=0;orthogonalLoop=1;jettySize=auto;html=1;entryX=0;entryY=0.5;entryDx=0;entryDy=0;" parent="1" source="5" target="37" edge="1">
                    <mxGeometry relative="1" as="geometry">
                        <Array as="points">
                            <mxPoint x="2207" y="855"/>
                            <mxPoint x="2207" y="948"/>
                            <mxPoint x="1954" y="948"/>
                            <mxPoint x="1954" y="1120"/>
                        </Array>
                    </mxGeometry>
                </mxCell>
                <mxCell id="67" value="AllocationClasses" style="swimlane;fontStyle=1;childLayout=stackLayout;horizontal=1;startSize=26;horizontalStack=0;resizeParent=1;resizeLast=0;collapsible=1;marginBottom=0;rounded=0;shadow=0;strokeWidth=1;" parent="1" vertex="1">
                    <mxGeometry x="1599" y="784.5" width="210" height="154" as="geometry">
                        <mxRectangle x="20" y="80" width="160" height="26" as="alternateBounds"/>
                    </mxGeometry>
                </mxCell>
                <mxCell id="68" value="Id" style="shape=partialRectangle;top=0;left=0;right=0;bottom=1;align=left;verticalAlign=top;fillColor=none;spacingLeft=40;spacingRight=4;overflow=hidden;rotatable=0;points=[[0,0.5],[1,0.5]];portConstraint=eastwest;dropTarget=0;rounded=0;shadow=0;strokeWidth=1;fontStyle=4" parent="67" vertex="1">
                    <mxGeometry y="26" width="210" height="26" as="geometry"/>
                </mxCell>
                <mxCell id="69" value="PK" style="shape=partialRectangle;top=0;left=0;bottom=0;fillColor=none;align=left;verticalAlign=top;spacingLeft=4;spacingRight=4;overflow=hidden;rotatable=0;points=[];portConstraint=eastwest;part=1;" parent="68" vertex="1" connectable="0">
                    <mxGeometry width="36" height="26" as="geometry"/>
                </mxCell>
                <mxCell id="70" value="DateDebut" style="shape=partialRectangle;top=0;left=0;right=0;bottom=0;align=left;verticalAlign=top;fillColor=none;spacingLeft=40;spacingRight=4;overflow=hidden;rotatable=0;points=[[0,0.5],[1,0.5]];portConstraint=eastwest;dropTarget=0;rounded=0;shadow=0;strokeWidth=1;" parent="67" vertex="1">
                    <mxGeometry y="52" width="210" height="26" as="geometry"/>
                </mxCell>
                <mxCell id="71" value="" style="shape=partialRectangle;top=0;left=0;bottom=0;fillColor=none;align=left;verticalAlign=top;spacingLeft=4;spacingRight=4;overflow=hidden;rotatable=0;points=[];portConstraint=eastwest;part=1;" parent="70" vertex="1" connectable="0">
                    <mxGeometry width="36" height="26" as="geometry"/>
                </mxCell>
                <mxCell id="72" value="DateFin" style="shape=partialRectangle;top=0;left=0;right=0;bottom=0;align=left;verticalAlign=top;fillColor=none;spacingLeft=40;spacingRight=4;overflow=hidden;rotatable=0;points=[[0,0.5],[1,0.5]];portConstraint=eastwest;dropTarget=0;rounded=0;shadow=0;strokeWidth=1;" parent="67" vertex="1">
                    <mxGeometry y="78" width="210" height="26" as="geometry"/>
                </mxCell>
                <mxCell id="73" value="" style="shape=partialRectangle;top=0;left=0;bottom=0;fillColor=none;align=left;verticalAlign=top;spacingLeft=4;spacingRight=4;overflow=hidden;rotatable=0;points=[];portConstraint=eastwest;part=1;" parent="72" vertex="1" connectable="0">
                    <mxGeometry width="36" height="26" as="geometry"/>
                </mxCell>
                <mxCell id="74" value="Classe_Id" style="shape=partialRectangle;top=0;left=0;right=0;bottom=0;align=left;verticalAlign=top;fillColor=none;spacingLeft=40;spacingRight=4;overflow=hidden;rotatable=0;points=[[0,0.5],[1,0.5]];portConstraint=eastwest;dropTarget=0;rounded=0;shadow=0;strokeWidth=1;" parent="67" vertex="1">
                    <mxGeometry y="104" width="210" height="24" as="geometry"/>
                </mxCell>
                <mxCell id="75" value="FK" style="shape=partialRectangle;top=0;left=0;bottom=0;fillColor=none;align=left;verticalAlign=top;spacingLeft=4;spacingRight=4;overflow=hidden;rotatable=0;points=[];portConstraint=eastwest;part=1;" parent="74" vertex="1" connectable="0">
                    <mxGeometry width="36" height="24" as="geometry"/>
                </mxCell>
                <mxCell id="76" value="Utilisateur_Id" style="shape=partialRectangle;top=0;left=0;right=0;bottom=0;align=left;verticalAlign=top;fillColor=none;spacingLeft=40;spacingRight=4;overflow=hidden;rotatable=0;points=[[0,0.5],[1,0.5]];portConstraint=eastwest;dropTarget=0;rounded=0;shadow=0;strokeWidth=1;" parent="67" vertex="1">
                    <mxGeometry y="128" width="210" height="26" as="geometry"/>
                </mxCell>
                <mxCell id="77" value="FK" style="shape=partialRectangle;top=0;left=0;bottom=0;fillColor=none;align=left;verticalAlign=top;spacingLeft=4;spacingRight=4;overflow=hidden;rotatable=0;points=[];portConstraint=eastwest;part=1;" parent="76" vertex="1" connectable="0">
                    <mxGeometry width="36" height="26" as="geometry"/>
                </mxCell>
                <mxCell id="78" style="edgeStyle=orthogonalEdgeStyle;rounded=0;orthogonalLoop=1;jettySize=auto;html=1;entryX=0;entryY=0.5;entryDx=0;entryDy=0;" parent="1" edge="1">
                    <mxGeometry relative="1" as="geometry">
                        <mxPoint x="1440" y="657" as="sourcePoint"/>
                        <mxPoint x="1599" y="923.5" as="targetPoint"/>
                        <Array as="points">
                            <mxPoint x="1465" y="657"/>
                            <mxPoint x="1465" y="924"/>
                        </Array>
                    </mxGeometry>
                </mxCell>
                <mxCell id="80" style="edgeStyle=orthogonalEdgeStyle;rounded=0;orthogonalLoop=1;jettySize=auto;html=1;entryX=1;entryY=0.5;entryDx=0;entryDy=0;" parent="1" source="5" target="74" edge="1">
                    <mxGeometry relative="1" as="geometry">
                        <Array as="points">
                            <mxPoint x="1898" y="848"/>
                            <mxPoint x="1898" y="901"/>
                        </Array>
                    </mxGeometry>
                </mxCell>
                <mxCell id="83" style="edgeStyle=orthogonalEdgeStyle;rounded=0;orthogonalLoop=1;jettySize=auto;html=1;entryX=1;entryY=0.5;entryDx=0;entryDy=0;" parent="1" source="5" target="81" edge="1">
                    <mxGeometry relative="1" as="geometry">
                        <Array as="points">
                            <mxPoint x="2206" y="848"/>
                            <mxPoint x="2206" y="788"/>
                            <mxPoint x="2049" y="788"/>
                            <mxPoint x="2049" y="579"/>
                        </Array>
                    </mxGeometry>
                </mxCell>
                <mxCell id="86" style="edgeStyle=orthogonalEdgeStyle;rounded=0;orthogonalLoop=1;jettySize=auto;html=1;exitX=1;exitY=0.5;exitDx=0;exitDy=0;entryX=0;entryY=0.5;entryDx=0;entryDy=0;" parent="1" source="0aXxM7tNw3-ZoR6wABGS-77" target="84" edge="1">
                    <mxGeometry relative="1" as="geometry">
                        <Array as="points">
                            <mxPoint x="1474" y="649"/>
                            <mxPoint x="1474" y="766"/>
                            <mxPoint x="1928" y="766"/>
                            <mxPoint x="1928" y="926"/>
                        </Array>
                    </mxGeometry>
                </mxCell>
                <mxCell id="89" style="edgeStyle=orthogonalEdgeStyle;rounded=0;orthogonalLoop=1;jettySize=auto;html=1;" parent="1" source="0aXxM7tNw3-ZoR6wABGS-2" edge="1">
                    <mxGeometry relative="1" as="geometry">
                        <Array as="points">
                            <mxPoint x="1725" y="326"/>
                            <mxPoint x="1725" y="716"/>
                        </Array>
                        <mxPoint x="1710" y="716" as="targetPoint"/>
                    </mxGeometry>
                </mxCell>
                <mxCell id="90" value="&lt;h1&gt;&lt;div&gt;&lt;span style=&quot;font-size: 12px ; font-weight: 400&quot;&gt;Remarques:&lt;/span&gt;&lt;/div&gt;&lt;div&gt;&lt;span style=&quot;font-size: 12px ; font-weight: 400&quot;&gt;1. &lt;i&gt;Utilisateur_Id&lt;/i&gt; dans l'entité &quot;Classe&quot; correspond au titulaire de la classe.&lt;/span&gt;&lt;/div&gt;&lt;div&gt;&lt;br&gt;&lt;/div&gt;&lt;/h1&gt;" style="text;html=1;strokeColor=none;fillColor=none;spacing=5;spacingTop=-20;whiteSpace=wrap;overflow=hidden;rounded=0;" parent="1" vertex="1">
                    <mxGeometry x="2499" y="301" width="280" height="310" as="geometry"/>
                </mxCell>
                <mxCell id="102" style="edgeStyle=orthogonalEdgeStyle;rounded=0;orthogonalLoop=1;jettySize=auto;html=1;entryX=1;entryY=0.5;entryDx=0;entryDy=0;" parent="1" source="95" target="100" edge="1">
                    <mxGeometry relative="1" as="geometry">
                        <Array as="points">
                            <mxPoint x="1520" y="1119"/>
                            <mxPoint x="1520" y="1013"/>
                        </Array>
                    </mxGeometry>
                </mxCell>
                <mxCell id="95" value="TypeUtilisateur" style="swimlane;fontStyle=1;childLayout=stackLayout;horizontal=1;startSize=26;horizontalStack=0;resizeParent=1;resizeLast=0;collapsible=1;marginBottom=0;rounded=0;shadow=0;strokeWidth=1;" parent="1" vertex="1">
                    <mxGeometry x="1573" y="1080" width="210" height="78" as="geometry">
                        <mxRectangle x="20" y="80" width="160" height="26" as="alternateBounds"/>
                    </mxGeometry>
                </mxCell>
                <mxCell id="96" value="Id" style="shape=partialRectangle;top=0;left=0;right=0;bottom=1;align=left;verticalAlign=top;fillColor=none;spacingLeft=40;spacingRight=4;overflow=hidden;rotatable=0;points=[[0,0.5],[1,0.5]];portConstraint=eastwest;dropTarget=0;rounded=0;shadow=0;strokeWidth=1;fontStyle=4" parent="95" vertex="1">
                    <mxGeometry y="26" width="210" height="26" as="geometry"/>
                </mxCell>
                <mxCell id="97" value="PK" style="shape=partialRectangle;top=0;left=0;bottom=0;fillColor=none;align=left;verticalAlign=top;spacingLeft=4;spacingRight=4;overflow=hidden;rotatable=0;points=[];portConstraint=eastwest;part=1;" parent="96" vertex="1" connectable="0">
                    <mxGeometry width="36" height="26" as="geometry"/>
                </mxCell>
                <mxCell id="98" value="Intitule" style="shape=partialRectangle;top=0;left=0;right=0;bottom=0;align=left;verticalAlign=top;fillColor=none;spacingLeft=40;spacingRight=4;overflow=hidden;rotatable=0;points=[[0,0.5],[1,0.5]];portConstraint=eastwest;dropTarget=0;rounded=0;shadow=0;strokeWidth=1;" parent="95" vertex="1">
                    <mxGeometry y="52" width="210" height="26" as="geometry"/>
                </mxCell>
                <mxCell id="99" value="" style="shape=partialRectangle;top=0;left=0;bottom=0;fillColor=none;align=left;verticalAlign=top;spacingLeft=4;spacingRight=4;overflow=hidden;rotatable=0;points=[];portConstraint=eastwest;part=1;" parent="98" vertex="1" connectable="0">
                    <mxGeometry width="36" height="26" as="geometry"/>
                </mxCell>
            </root>
        </mxGraphModel>
    </diagram>
</mxfile>